<!-- Generator: Adobe Illustrator 23.1.0, SVG Export Plug-In  -->
<svg version="1.1" xmlns="http://www.w3.org/2000/svg" xmlns:xlink="http://www.w3.org/1999/xlink" x="0px" y="0px" viewBox="0 0 71.6 71.6" style="enable-background:new 0 0 71.6 71.6;" xml:space="preserve">
<style type="text/css">
	.st10{fill:none;stroke:#000000;stroke-width:4;stroke-linecap:round;stroke-linejoin:round;stroke-miterlimit:10;}
</style>
<defs>
</defs>
<g>
	<g>
		<g>
			<path d="M14.5,26c0.4-1.9,0.7-3.9,1.8-5.6c2.4-4,6.2-5.5,10.6-5.6c6-0.1,11.9-0.1,17.9,0c4,0.1,7.6,1.4,10.1,4.9
				c1.6,2.3,2.2,4.8,2.2,7.5c0.1,5.7,0.1,11.4,0,17.2c-0.1,4.6-1.7,8.5-6,10.9c-2,1.1-4.2,1.6-6.4,1.6c-5.9,0.1-11.8,0.1-17.6,0
				c-4.4-0.1-8.2-1.6-10.7-5.6c-1.1-1.7-1.4-3.7-1.8-5.6C14.5,39.1,14.5,32.6,14.5,26z M35.8,18.8c-2.9,0-5.8-0.1-8.8,0
				c-4.6,0.1-7.4,2.2-8.2,6.2c-0.2,0.8-0.3,1.7-0.3,2.5c0,5.5-0.1,11.1,0,16.6c0.1,5.5,2.9,8.4,8.2,8.6c6,0.2,12,0.2,18,0
				c4.4-0.1,7-2.3,7.9-6.1c0.2-0.7,0.3-1.4,0.3-2.1c0-6.3,0.4-12.6-0.2-18.9c-0.3-3.7-2.8-6.2-6.5-6.7
				C42.8,18.6,39.3,18.9,35.8,18.8z"/>
		</g>
		<g>
			<path d="M46.8,35.9c0,5.9-4.9,10.8-11,10.9c-6.1,0.1-11.1-4.9-11.1-11c0-6,5.1-11,11.1-10.9C42,25,46.8,29.9,46.8,35.9z
				 M42.7,35.9c0-3.8-3.1-6.9-6.9-6.9c-3.8,0-7,3.1-7,6.9c0,3.8,3.1,6.9,6.9,6.9C39.6,42.7,42.7,39.6,42.7,35.9z"/>
		</g>
		<g>
			<path d="M47.1,22c1.5,0,2.7,1.2,2.7,2.6c0,1.4-1.2,2.6-2.6,2.6c-1.5,0-2.7-1.1-2.8-2.6C44.4,23.2,45.6,22,47.1,22z"/>
		</g>
	</g>
	<path class="st10" d="M57,69.6H14.6C7.6,69.6,2,64,2,57V14.6C2,7.6,7.6,2,14.6,2H57c7,0,12.6,5.6,12.6,12.6V57
		C69.6,64,64,69.6,57,69.6z"/>
</g>
</svg>