<!-- Generator: Adobe Illustrator 23.1.0, SVG Export Plug-In  -->
<svg version="1.1" xmlns="http://www.w3.org/2000/svg" xmlns:xlink="http://www.w3.org/1999/xlink" x="0px" y="0px" viewBox="0 0 71.6 71.6" style="enable-background:new 0 0 71.6 71.6;" xml:space="preserve">
<style type="text/css">
	.st10{fill:none;stroke:#000000;stroke-width:4;stroke-linecap:round;stroke-linejoin:round;stroke-miterlimit:10;}
</style>
<defs>
</defs>
<g>
	<g>
		<g>
			<path d="M26.3,22.5c0,2.1-1.3,3.8-3.8,3.8c-2.3,0-3.8-1.7-3.8-3.6c0-2.1,1.5-4,3.8-4S26.3,20.5,26.3,22.5z"/>
		</g>
		<g>
			<rect x="18.7" y="28.2" width="7.6" height="24.7"/>
		</g>
		<g>
			<path d="M44.6,28.6c-4,0-6.3,2.3-7.2,3.8h-0.2l-0.4-3.2h-6.8c0,2.1,0.2,4.6,0.2,7.4v16.3h7.6V39.4c0-0.8,0-1.3,0.2-1.9
				c0.6-1.3,1.5-3,3.6-3c2.7,0,3.8,2.3,3.8,5.3v13.1h7.6v-14C52.9,31.8,49.3,28.6,44.6,28.6z"/>
		</g>
	</g>
	<path class="st10" d="M57,69.6H14.6C7.6,69.6,2,64,2,57V14.6C2,7.6,7.6,2,14.6,2H57c7,0,12.6,5.6,12.6,12.6V57
		C69.6,64,64,69.6,57,69.6z"/>
</g>
</svg>