<!-- Generator: Adobe Illustrator 23.1.0, SVG Export Plug-In  -->
<svg version="1.1" xmlns="http://www.w3.org/2000/svg" xmlns:xlink="http://www.w3.org/1999/xlink" x="0px" y="0px" viewBox="0 0 71.6 71.6" style="enable-background:new 0 0 71.6 71.6;" xml:space="preserve">
<style type="text/css">
	.st10{fill:none;stroke:#000000;stroke-width:4;stroke-linecap:round;stroke-linejoin:round;stroke-miterlimit:10;}
</style>
<defs>
</defs>
<g>
	<g>
		<g>
			<path d="M15,48.9c4.6,0.4,8.6-0.7,12.3-3.3c-0.8-0.2-1.5-0.3-2.1-0.5c-2.5-0.8-4.2-2.4-5.3-4.8c-0.3-0.7-0.3-0.8,0.5-0.8
				c0.8,0,1.6,0.1,2.6-0.2c-1.5-0.4-2.7-1.1-3.7-2c-1.6-1.5-2.6-3.4-2.7-5.6c-0.1-0.9,0-1,0.8-0.6c0.8,0.4,1.6,0.6,2.6,0.6
				c-0.6-0.7-1.3-1.2-1.7-1.9c-1.9-2.7-2.2-5.6-0.9-8.6c0.3-0.8,0.5-0.8,1.1-0.2c2.9,3.2,6.3,5.6,10.4,7c1.8,0.6,3.6,1,5.5,1.2
				c1,0.1,1.1,0,0.9-1c-0.4-3.4,1.5-6.9,4.6-8.5c3.1-1.6,7.1-1.2,9.6,1.2c0.5,0.5,1,0.5,1.6,0.4c1.3-0.4,2.6-0.8,3.8-1.5
				c0.2-0.1,0.4-0.3,0.7-0.2c-0.6,1.8-1.7,3.2-3.2,4.4c1.4-0.2,2.8-0.6,4.2-1.1c0,0.5-0.3,0.7-0.4,1c-0.9,1.1-1.8,2.1-2.9,2.9
				c-0.5,0.4-0.7,0.8-0.7,1.5c0.1,5.7-1.7,10.8-5.1,15.3c-4,5.4-9.5,8.4-16.1,9.2c-5.5,0.7-10.7-0.4-15.5-3.1
				c-0.2-0.1-0.3-0.2-0.5-0.3C15.3,49.2,15.2,49.1,15,48.9z"/>
		</g>
	</g>
	<path class="st10" d="M57,69.6H14.6C7.6,69.6,2,64,2,57V14.6C2,7.6,7.6,2,14.6,2H57c7,0,12.6,5.6,12.6,12.6V57
		C69.6,64,64,69.6,57,69.6z"/>
</g>
</svg>